<?xml version="1.0" encoding="UTF-8" standalone="no"?>
<!-- Created with Inkscape (http://www.inkscape.org/) -->

<svg
   width="236.63762mm"
   height="30.64249mm"
   viewBox="0 0 236.63762 30.64249"
   version="1.1"
   id="svg1"
   inkscape:version="1.3.2 (091e20e, 2023-11-25, custom)"
   sodipodi:docname="Test Health Bar.svg"
   xml:space="preserve"
   xmlns:inkscape="http://www.inkscape.org/namespaces/inkscape"
   xmlns:sodipodi="http://sodipodi.sourceforge.net/DTD/sodipodi-0.dtd"
   xmlns="http://www.w3.org/2000/svg"
   xmlns:svg="http://www.w3.org/2000/svg"><sodipodi:namedview
     id="namedview1"
     pagecolor="#ffffff"
     bordercolor="#000000"
     borderopacity="0.25"
     inkscape:showpageshadow="2"
     inkscape:pageopacity="0.0"
     inkscape:pagecheckerboard="0"
     inkscape:deskcolor="#d1d1d1"
     inkscape:document-units="mm"
     inkscape:zoom="1.0307169"
     inkscape:cx="1538.7348"
     inkscape:cy="469.57608"
     inkscape:window-width="958"
     inkscape:window-height="484"
     inkscape:window-x="2553"
     inkscape:window-y="357"
     inkscape:window-maximized="0"
     inkscape:current-layer="layer1" /><defs
     id="defs1" /><g
     inkscape:label="Layer 1"
     inkscape:groupmode="layer"
     id="layer1"
     transform="translate(-232.80349,54.778475)"><g
       id="g6"
       transform="translate(-26.696629,-55.318496)"><rect
         style="fill:none;stroke:#808080;stroke-width:1.928;stroke-dasharray:none"
         id="rect3"
         width="234.70963"
         height="28.714489"
         x="260.46411"
         y="1.5040201"
         ry="4.2447486"
         inkscape:export-filename="Over.svg"
         inkscape:export-xdpi="96"
         inkscape:export-ydpi="96" /><g
         id="g5"
         transform="matrix(0.47679834,0,0,0.47679834,147.1785,24.549442)"
         style="fill:#ffffff"><g
           id="g3"
           transform="translate(-23.552075,58.430963)"
           style="fill:#ffffff"><path
             id="path2"
             style="color:#000000;fill:#ffffff;stroke-linecap:round;stroke-linejoin:round;-inkscape-stroke:none"
             d="m 275.23281,-93.796342 a 1.614,1.614 0 0 0 -1.14101,0.472323 1.614,1.614 0 0 0 0,2.280997 l 4.50567,4.505668 -3.62304,3.947563 a 1.6141614,1.6141614 0 0 0 0.0238,2.209168 c 0,0 1.1553,1.201061 2.31614,2.41794 0.49312,0.516917 0.95355,1.00188 1.35961,1.431437 -0.41255,0.438074 -0.88514,0.934434 -1.40044,1.466577 -1.22015,1.26003 -2.45153,2.507857 -2.45153,2.507857 a 1.6141614,1.6141614 0 0 0 0.0336,2.301152 l 3.8809,3.70675 -4.26382,4.287077 a 1.614,1.614 0 0 0 0.008,2.283065 1.614,1.614 0 0 0 2.28152,-0.0057 l 5.42396,-5.454965 a 1.6141614,1.6141614 0 0 0 -0.0295,-2.304768 l -3.89072,-3.718636 c 0.47283,-0.481758 0.66417,-0.672 1.32602,-1.355473 0.61726,-0.637432 1.23307,-1.279067 1.70119,-1.781287 0.23406,-0.251111 0.4291,-0.465336 0.58394,-0.644405 0.0774,-0.08953 0.1421,-0.164621 0.21911,-0.267684 0.0385,-0.05153 0.0803,-0.102558 0.15038,-0.226859 0.0351,-0.06215 0.0791,-0.136647 0.13642,-0.314193 0.0286,-0.08877 0.0639,-0.204332 0.0765,-0.394808 0.006,-0.09524 -0.0154,-0.348683 -0.0155,-0.349333 -10e-5,-6.5e-4 -0.15219,-0.482157 -0.15244,-0.482658 -0.20956,-0.419207 -0.1864,-0.292571 -0.21704,-0.329695 -0.0306,-0.03712 -0.0546,-0.06518 -0.0801,-0.09405 -0.051,-0.05774 -0.10748,-0.121061 -0.17777,-0.197404 -0.14059,-0.152685 -0.3291,-0.352639 -0.55242,-0.589628 -0.44663,-0.473982 -1.03267,-1.088247 -1.61541,-1.699122 -0.63956,-0.670427 -0.82881,-0.868352 -1.2733,-1.332218 l 3.64629,-3.970817 a 1.6141614,1.6141614 0 0 0 -0.0486,-2.233972 l -5.59966,-5.597591 a 1.614,1.614 0 0 0 -1.1405,-0.472323 z m 6.65386,0 a 1.614,1.614 0 0 0 -1.1405,0.472323 1.614,1.614 0 0 0 0,2.280997 l 4.50567,4.505668 -3.62304,3.947563 a 1.6141614,1.6141614 0 0 0 0.0233,2.209168 c 0,0 1.15581,1.201061 2.31665,2.41794 0.49311,0.516917 0.95355,1.00188 1.35961,1.431437 -0.41255,0.438074 -0.88512,0.934434 -1.40043,1.466577 -1.22015,1.26003 -2.45153,2.507857 -2.45153,2.507857 a 1.6141614,1.6141614 0 0 0 0.0336,2.301152 l 3.88038,3.70675 -4.2633,4.287077 a 1.614,1.614 0 0 0 0.008,2.283065 1.614,1.614 0 0 0 2.28151,-0.0057 l 5.42344,-5.454965 a 1.6141614,1.6141614 0 0 0 -0.0289,-2.304768 l -3.89072,-3.718636 c 0.47283,-0.481758 0.66417,-0.672 1.32601,-1.355473 0.61726,-0.637432 1.23307,-1.279067 1.70119,-1.781287 0.23405,-0.251111 0.42911,-0.465336 0.58395,-0.644405 0.0774,-0.08953 0.14208,-0.164621 0.2191,-0.267684 0.0385,-0.05153 0.0803,-0.102558 0.15038,-0.226859 0.0351,-0.06215 0.0791,-0.136647 0.13643,-0.314193 0.0286,-0.08877 0.0639,-0.204332 0.0765,-0.394808 0.006,-0.09524 -0.0159,-0.348683 -0.016,-0.349333 -10e-5,-6.5e-4 -0.15168,-0.482157 -0.15193,-0.482658 -0.20955,-0.419207 -0.1864,-0.292571 -0.21704,-0.329695 -0.0306,-0.03712 -0.0546,-0.06518 -0.0801,-0.09405 -0.051,-0.05774 -0.10748,-0.121061 -0.17777,-0.197404 -0.14058,-0.152685 -0.3291,-0.352639 -0.55242,-0.589628 -0.44664,-0.473982 -1.03265,-1.088247 -1.6154,-1.699122 -0.63955,-0.670427 -0.82883,-0.868352 -1.27331,-1.332218 l 3.64629,-3.970817 a 1.6141614,1.6141614 0 0 0 -0.0486,-2.233972 l -5.59965,-5.597591 a 1.614,1.614 0 0 0 -1.14102,-0.472323 z" /></g><g
           id="g4"
           transform="matrix(-1,0,0,1,571.84976,58.430963)"
           style="fill:#ffffff"><path
             id="path3"
             style="color:#000000;fill:#ffffff;stroke-linecap:round;stroke-linejoin:round;-inkscape-stroke:none"
             d="m 275.23281,-93.796342 a 1.614,1.614 0 0 0 -1.14101,0.472323 1.614,1.614 0 0 0 0,2.280997 l 4.50567,4.505668 -3.62304,3.947563 a 1.6141614,1.6141614 0 0 0 0.0238,2.209168 c 0,0 1.1553,1.201061 2.31614,2.41794 0.49312,0.516917 0.95355,1.00188 1.35961,1.431437 -0.41255,0.438074 -0.88514,0.934434 -1.40044,1.466577 -1.22015,1.26003 -2.45153,2.507857 -2.45153,2.507857 a 1.6141614,1.6141614 0 0 0 0.0336,2.301152 l 3.8809,3.70675 -4.26382,4.287077 a 1.614,1.614 0 0 0 0.008,2.283065 1.614,1.614 0 0 0 2.28152,-0.0057 l 5.42396,-5.454965 a 1.6141614,1.6141614 0 0 0 -0.0295,-2.304768 l -3.89072,-3.718636 c 0.47283,-0.481758 0.66417,-0.672 1.32602,-1.355473 0.61726,-0.637432 1.23307,-1.279067 1.70119,-1.781287 0.23406,-0.251111 0.4291,-0.465336 0.58394,-0.644405 0.0774,-0.08953 0.1421,-0.164621 0.21911,-0.267684 0.0385,-0.05153 0.0803,-0.102558 0.15038,-0.226859 0.0351,-0.06215 0.0791,-0.136647 0.13642,-0.314193 0.0286,-0.08877 0.0639,-0.204332 0.0765,-0.394808 0.006,-0.09524 -0.0154,-0.348683 -0.0155,-0.349333 -10e-5,-6.5e-4 -0.15219,-0.482157 -0.15244,-0.482658 -0.20956,-0.419207 -0.1864,-0.292571 -0.21704,-0.329695 -0.0306,-0.03712 -0.0546,-0.06518 -0.0801,-0.09405 -0.051,-0.05774 -0.10748,-0.121061 -0.17777,-0.197404 -0.14059,-0.152685 -0.3291,-0.352639 -0.55242,-0.589628 -0.44663,-0.473982 -1.03267,-1.088247 -1.61541,-1.699122 -0.63956,-0.670427 -0.82881,-0.868352 -1.2733,-1.332218 l 3.64629,-3.970817 a 1.6141614,1.6141614 0 0 0 -0.0486,-2.233972 l -5.59966,-5.597591 a 1.614,1.614 0 0 0 -1.1405,-0.472323 z m 6.65386,0 a 1.614,1.614 0 0 0 -1.1405,0.472323 1.614,1.614 0 0 0 0,2.280997 l 4.50567,4.505668 -3.62304,3.947563 a 1.6141614,1.6141614 0 0 0 0.0233,2.209168 c 0,0 1.15581,1.201061 2.31665,2.41794 0.49311,0.516917 0.95355,1.00188 1.35961,1.431437 -0.41255,0.438074 -0.88512,0.934434 -1.40043,1.466577 -1.22015,1.26003 -2.45153,2.507857 -2.45153,2.507857 a 1.6141614,1.6141614 0 0 0 0.0336,2.301152 l 3.88038,3.70675 -4.2633,4.287077 a 1.614,1.614 0 0 0 0.008,2.283065 1.614,1.614 0 0 0 2.28151,-0.0057 l 5.42344,-5.454965 a 1.6141614,1.6141614 0 0 0 -0.0289,-2.304768 l -3.89072,-3.718636 c 0.47283,-0.481758 0.66417,-0.672 1.32601,-1.355473 0.61726,-0.637432 1.23307,-1.279067 1.70119,-1.781287 0.23405,-0.251111 0.42911,-0.465336 0.58395,-0.644405 0.0774,-0.08953 0.14208,-0.164621 0.2191,-0.267684 0.0385,-0.05153 0.0803,-0.102558 0.15038,-0.226859 0.0351,-0.06215 0.0791,-0.136647 0.13643,-0.314193 0.0286,-0.08877 0.0639,-0.204332 0.0765,-0.394808 0.006,-0.09524 -0.0159,-0.348683 -0.016,-0.349333 -10e-5,-6.5e-4 -0.15168,-0.482157 -0.15193,-0.482658 -0.20955,-0.419207 -0.1864,-0.292571 -0.21704,-0.329695 -0.0306,-0.03712 -0.0546,-0.06518 -0.0801,-0.09405 -0.051,-0.05774 -0.10748,-0.121061 -0.17777,-0.197404 -0.14058,-0.152685 -0.3291,-0.352639 -0.55242,-0.589628 -0.44664,-0.473982 -1.03265,-1.088247 -1.6154,-1.699122 -0.63955,-0.670427 -0.82883,-0.868352 -1.27331,-1.332218 l 3.64629,-3.970817 a 1.6141614,1.6141614 0 0 0 -0.0486,-2.233972 l -5.59965,-5.597591 a 1.614,1.614 0 0 0 -1.14102,-0.472323 z" /></g><path
           style="color:#000000;fill:#ffffff;stroke-linecap:round;stroke-linejoin:round;-inkscape-stroke:none"
           d="m 274.14884,-24.842028 c -3.63679,0 -6.61914,2.9843 -6.61914,6.621094 0,3.636793 2.98235,6.61914 6.61914,6.61914 3.6368,0 6.61914,-2.982347 6.61914,-6.61914 0,-3.636794 -2.98234,-6.621094 -6.61914,-6.621094 z m 0,3.228515 c 1.89226,0 3.39063,1.500324 3.39063,3.392579 0,1.892254 -1.49837,3.390625 -3.39063,3.390625 -1.89225,0 -3.39258,-1.498371 -3.39258,-3.390625 0,-1.892255 1.50033,-3.392579 3.39258,-3.392579 z"
           id="path4" /></g></g></g></svg>
